<?xml version="1.0" encoding="UTF-8" standalone="no"?>
<svg
   width="602"
   height="602"
   version="1.1"
   id="svg10"
   sodipodi:docname="Roundel_of_Kuwait.svg"
   inkscape:version="1.2.2 (732a01da63, 2022-12-09)"
   xmlns:inkscape="http://www.inkscape.org/namespaces/inkscape"
   xmlns:sodipodi="http://sodipodi.sourceforge.net/DTD/sodipodi-0.dtd"
   xmlns="http://www.w3.org/2000/svg"
   xmlns:svg="http://www.w3.org/2000/svg">
  <defs
     id="defs14" />
  <sodipodi:namedview
     id="namedview12"
     pagecolor="#ffffff"
     bordercolor="#111111"
     borderopacity="1"
     inkscape:showpageshadow="0"
     inkscape:pageopacity="0"
     inkscape:pagecheckerboard="1"
     inkscape:deskcolor="#d1d1d1"
     showgrid="false"
     inkscape:zoom="1.1088186"
     inkscape:cx="540.2146"
     inkscape:cy="305.7308"
     inkscape:window-width="1920"
     inkscape:window-height="1057"
     inkscape:window-x="-8"
     inkscape:window-y="-8"
     inkscape:window-maximized="1"
     inkscape:current-layer="g902" />
  <circle
     cx="301"
     cy="301"
     r="300"
     fill="#007a3d"
     id="circle2"
     style="fill:#20603d;fill-opacity:1;stroke:none" />
  <circle
     cx="301"
     cy="301"
     r="225"
     fill="#ffffff"
     id="circle4"
     style="fill:#fad201;fill-opacity:1;stroke:none" />
  <circle
     cx="301"
     cy="301"
     r="150"
     fill="#ce1126"
     id="circle6"
     style="fill:#00a3e0;fill-opacity:1;stroke:none" />
  <g
     transform="matrix(0.71428571,0,0,0.71428571,301,305.65927)"
     id="g902"
     style="fill:#fad201;fill-opacity:1;stroke:#000000;stroke-opacity:1">
    <path
       fill="#e5be01"
       d="M 0,-174.52298 6.79,-58.082977 43.48,-168.80298 19.9,-54.562977 84,-152.01298 31.66,-47.772977 l 87.13,-77.540003 -77.54,87.130003 104.24,-52.34 -97.45,64.1 114.24,-23.58 -110.72,36.69 116.44,6.79 -116.44,6.78999997 110.72,36.69000003 -114.24,-23.58 97.45,64.1 -104.24,-52.34 77.54,87.129997 L 31.66,34.727023 84,138.96702 19.9,41.517023 43.48,155.75702 6.79,45.037023 0,161.47702 -6.79,45.037023 -43.48,155.75702 -19.9,41.517023 -84,138.96702 -31.66,34.727023 l -87.13,77.539997 77.54,-87.129997 -104.24,52.34 97.45,-64.1 -114.24,23.58 L -51.56,0.26702297 -168,-6.522977 l 116.44,-6.79 -110.72,-36.69 114.24,23.58 -97.45,-64.1 104.24,52.34 -77.54,-87.130003 87.13,77.540003 L -84,-152.01298 -19.9,-54.562977 -43.48,-168.80298 -6.79,-58.082977 Z"
       id="path898"
       style="fill:#fad201;fill-opacity:1;stroke:none;stroke-width:0;stroke-dasharray:none;stroke-opacity:1" />
    <circle
       fill="none"
       stroke="#00a3e0"
       r="49"
       stroke-width="6"
       id="circle900"
       cx="0"
       cy="-6.5229778"
       style="fill:none;fill-opacity:1;stroke:#00a3e0;stroke-width:7.00000004;stroke-dasharray:none;stroke-opacity:1" />
  </g>
</svg>
